<?xml version="1.0" encoding="utf-8"?>
<svg viewBox="0 0 500 500" xmlns="http://www.w3.org/2000/svg" xmlns:bx="https://boxy-svg.com">
  <defs>
    <marker id="marker-0" viewBox="0 0 100 100" overflow="visible" orient="auto" refX="50" refY="50" bx:pinned="true">
      <ellipse style="stroke: rgb(0, 0, 0);" cx="47.738" cy="47.738" rx="54.175" ry="54.175"/>
    </marker>
  </defs>
  <path style="stroke: rgb(0, 0, 0); stroke-width: 3px; stroke-linecap: round; stroke-linejoin: round;" d="M 243.292 97.549 C 243.292 97.549 308.256 132.351 303.036 243.72 C 290.855 239.66 285.487 236.416 277.515 246.041 C 270.259 254.03 269.049 261.544 271.885 281.199 C 272.171 283.182 275.218 306.643 304.018 296.042 C 318.224 284.49 312.388 237.65 339.084 236.981 C 328.484 238.634 323.041 251.545 323.194 262.248 C 323.524 285.339 322.759 301.98 307.745 313.767 C 301.761 318.465 293.178 320.576 280.994 318.546 C 306.516 354.509 340.942 329.77 341.899 278.523 C 342.431 250.001 355.821 239.08 374.382 225.739 C 392.943 212.398 394.104 199.637 392.944 188.616 C 398.165 197.317 395.843 214.138 380.182 231.54 C 366.841 245.462 357.561 248.941 357.561 266.922 C 357.561 284.903 366.841 312.166 348.28 340.008 C 333.64 361.969 301.097 362.47 277.145 350.244 C 274.211 358.571 275.29 366.031 278.094 373.071 C 285.878 392.612 328.892 389.566 351.244 382.288 C 322.334 402.224 271.192 402.226 251.921 376.424 C 242.276 363.51 243.585 343.853 243.585 343.853 C 243.016 281.479 244.295 98.552 243.292 97.549 Z" transform="matrix(0.9999999999999999, 0, 0, 0.9999999999999999, -7.105427357601002e-15, 0)"/>
  <path style="stroke: rgb(0, 0, 0); marker-mid: url('#marker-0'); marker-start: url('#marker-0'); vector-effect: non-scaling-stroke; stroke-width: 5px; fill: none; transform-origin: 170.621px 248.436px;" d="M 97.968 398.056 L 146.656 342.544 L 156.552 250.725 L 123.49 251.304 L 120.76 218.466 L 152.314 200.723 L 169.144 246.218 L 195.5 260.364 L 179.03 238.577 L 166.481 190.539 L 132.19 178.799 L 176.894 172.947 L 192.515 223.462 L 225.578 271.606 L 244.14 308.729 L 234.858 263.485 L 209.337 223.462 L 203.536 151.537 L 135.302 147.68 L 129.87 114.993 L 188.518 98.816 L 113.558 105.26 L 97.102 152.332 C 97.102 152.332 98.971 397.053 97.968 398.056 Z" transform="matrix(-1, 0, 0, -1, 0.000030517578, 0.000030517578)"/>
  <ellipse style="stroke: rgb(0, 0, 0);" cx="217.478" cy="247.201" rx="13.051" ry="12.761" transform="matrix(0.9999999999999999, 0, 0, 0.9999999999999999, -7.105427357601002e-15, 0)"/>
  <path style="stroke: rgb(0, 0, 0); fill: none; stroke-width: 2px;" d="M 135.983 345.808 L 164.405 323.767" transform="matrix(0.9999999999999999, 0, 0, 0.9999999999999999, -7.105427357601002e-15, 0)"/>
  <path style="stroke: rgb(0, 0, 0); fill: none; stroke-width: 2px;" d="M 242.712 96.969 L 218.35 244.3 L 220.67 277.943 L 189.709 296.25 L 172.526 250.681 L 173.686 306.365 L 208.489 316.806 L 243.872 344.648 L 205.009 348.129 L 163.825 323.767 L 130.763 270.982 L 115.681 223.419" transform="matrix(0.9999999999999999, 0, 0, 0.9999999999999999, -7.105427357601002e-15, 0)"/>
  <path style="fill: rgb(216, 216, 216); stroke: rgb(0, 0, 0); stroke-width: 2px;" d="M 221.25 277.363 L 242.712 345.228" transform="matrix(0.9999999999999999, 0, 0, 0.9999999999999999, -7.105427357601002e-15, 0)"/>
  <path style="fill: rgb(216, 216, 216); stroke: rgb(0, 0, 0); stroke-width: 2px;" d="M 193.988 153.233 L 217.19 245.46" transform="matrix(0.9999999999999999, 0, 0, 0.9999999999999999, -7.105427357601002e-15, 0)"/>
  <ellipse style="stroke-width: 4px; stroke: rgb(0, 0, 0); fill: rgb(255, 255, 255);" cx="266.783" cy="245.28" rx="17.982" ry="17.582" transform="matrix(0.9999999999999999, 0, 0, 0.9999999999999999, -7.105427357601002e-15, 0)"/>
  <ellipse style="stroke: rgb(255, 255, 255); stroke-width: 4px;" cx="266.493" cy="245.46" rx="13.051" ry="12.761" transform="matrix(0.9999999999999999, 0, 0, 0.9999999999999999, -7.105427357601002e-15, 0)"/>
  <path style="fill: rgb(216, 216, 216); stroke: rgb(0, 0, 0); stroke-width: 2px;" d="M 208.489 317.902 L 220.67 277.879" transform="matrix(0.9999999999999999, 0, 0, 0.9999999999999999, -7.105427357601002e-15, 0)"/>
  <ellipse style="stroke-width: 4px; stroke: rgb(0, 0, 0); fill: rgb(255, 255, 255);" cx="216.358" cy="245.875" rx="17.982" ry="17.582" transform="matrix(0.9999999999999999, 0, 0, 0.9999999999999999, -7.105427357601002e-15, 0)"/>
  <ellipse style="stroke: rgb(255, 255, 255); stroke-width: 4px;" cx="216.068" cy="246.055" rx="13.051" ry="12.761" transform="matrix(0.9999999999999999, 0, 0, 0.9999999999999999, -7.105427357601002e-15, 0)"/>
</svg>